<svg width="79" height="23" viewBox="0 0 79 23" fill="none" xmlns="http://www.w3.org/2000/svg">
<path d="M11.6572 5.25293C12.0967 5.22594 12.2437 5.24638 12.6299 5.31641C13.3476 5.4467 13.686 5.97948 13.7393 6.07031C13.8163 6.02293 13.895 5.97732 13.9756 5.93457C14.7185 5.52836 15.5259 5.32523 16.3984 5.3252C17.8388 5.3252 18.8487 5.95978 19.6396 6.84766C19.6895 6.90371 19.731 6.96711 19.7646 7.03418L21.373 10.2373C21.4617 10.414 21.4623 10.6224 21.375 10.7998L19.6494 14.3057C19.5633 14.4805 19.4228 14.6231 19.2529 14.7188C18.5779 15.0989 17.7574 15.6061 16.293 15.748C14.8189 15.748 13.5686 15.2794 12.7549 14.3594C11.9412 13.4273 11.5342 12.1665 11.5342 10.5771C11.5342 9.45382 11.7521 8.49771 12.1885 7.70898C12.2774 7.55255 12.3732 7.40459 12.4736 7.26367C12.4588 7.2203 12.3483 6.97257 11.7178 6.89258C11.0339 6.80595 10.47 7.25824 10.4561 7.26953C10.633 7.65195 10.7217 8.05904 10.7217 8.48926C10.7334 9.57658 10.3554 10.4492 9.58887 11.1064C8.82236 11.7516 7.77281 12.0742 6.44043 12.0742C5.88622 12.0742 5.42033 12.0319 5.04297 11.9482C4.9251 12.1035 4.83051 12.271 4.75977 12.4502C4.70083 12.6174 4.67093 12.767 4.6709 12.8984C4.6709 13.2928 4.80693 13.5617 5.07812 13.7051C5.36117 13.8485 5.86263 13.9209 6.58203 13.9209H8.47461C10.8804 13.9209 12.0829 14.8047 12.083 16.5732C12.083 17.3142 11.8236 17.9779 11.3047 18.5635C10.7858 19.1489 10.0961 19.6032 9.23535 19.9258C8.37443 20.2484 7.46022 20.4092 6.49316 20.4092C4.91292 20.4092 3.76911 20.1582 3.06152 19.6562C2.35404 19.1544 2.00003 18.4736 2 17.6133C2 17.1233 2.15912 16.657 2.47754 16.2148C2.80775 15.7846 3.20315 15.4622 3.66309 15.2471C3.12059 14.9244 2.84961 14.4102 2.84961 13.7051C2.84966 13.2988 2.97887 12.9161 3.23828 12.5576C3.49771 12.1873 3.8344 11.9004 4.24707 11.6973C3.59853 11.4463 3.11432 11.0645 2.7959 10.5508C2.47747 10.0369 2.31836 9.42677 2.31836 8.72168C2.3184 8.04059 2.5132 7.44914 2.90234 6.94727C3.30332 6.43342 3.83373 6.03853 4.49414 5.76367C5.16628 5.48884 5.89167 5.3516 6.66992 5.35156C8.04955 5.35156 9.07581 5.62059 9.74805 6.1582C9.90133 5.95512 10.161 5.76416 10.5264 5.58496C10.8919 5.40573 11.2178 5.27994 11.6572 5.25293ZM4.93652 15.6055C4.61811 16.0357 4.45898 16.5499 4.45898 17.1475C4.45905 17.8046 4.63552 18.3068 4.98926 18.6533C5.34307 18.9999 5.93327 19.1729 6.75879 19.1729C7.50157 19.1728 8.14412 18.9875 8.68652 18.6172C9.229 18.2587 9.50095 17.7566 9.50098 17.1113C9.50098 16.5975 9.36495 16.2271 9.09375 16C8.83431 15.773 8.36265 15.6592 7.67871 15.6592H5.75C5.45529 15.6592 5.1841 15.6413 4.93652 15.6055ZM42.2363 5.56738C43.069 5.56745 43.8231 5.74654 44.498 6.10449C45.1792 6.46243 45.7213 7.0059 46.125 7.73438C46.5288 8.46316 46.8222 9.39051 46.8223 10.5156C46.8223 11.6153 46.5288 12.53 46.125 13.2588C45.7213 13.9873 45.1792 14.5341 44.498 14.8984C43.8231 15.2628 43.069 15.4452 42.2363 15.4453C41.3972 15.4453 40.633 15.2629 39.9453 14.8984C39.264 14.534 38.7211 13.9875 38.3174 13.2588C37.9136 12.53 37.7119 11.6153 37.7119 10.5156C37.7119 9.39051 37.9136 8.46316 38.3174 7.73438C38.7211 7.00568 39.2641 6.4625 39.9453 6.10449C40.633 5.74647 41.3972 5.56738 42.2363 5.56738ZM49.9697 2C50.0965 2 50.2001 2.10273 50.2002 2.22949V6.94238C50.4274 6.58092 50.7038 6.28834 51.0322 6.06641C51.5307 5.73396 52.1213 5.56738 52.8027 5.56738C53.5534 5.56745 54.2348 5.76917 54.8467 6.17188C55.4586 6.57464 55.9441 7.14377 56.3037 7.87891C56.6696 8.60764 56.8525 9.46724 56.8525 10.458C56.8525 11.4553 56.6636 12.3282 56.2852 13.0762C55.9067 13.824 55.3987 14.4057 54.7617 14.8213C54.1245 15.2369 53.4107 15.4453 52.6221 15.4453C52.0544 15.4452 51.5336 15.282 51.0605 14.9561C50.5999 14.6386 50.2305 14.1628 49.9492 13.5303L49.3574 15.167H48.0635C47.9367 15.167 47.8341 15.0642 47.834 14.9375V2.22949C47.8341 2.10274 47.9367 2.00001 48.0635 2H49.9697ZM69.1729 5.56738C69.911 5.56738 70.5487 5.71807 71.085 6.01855C71.6274 6.31903 72.0626 6.72495 72.3906 7.23633C72.725 7.74771 72.9489 8.32608 73.0625 8.97168C73.1761 9.6174 73.1761 10.2827 73.0625 10.9668H67.1768C67.1786 11.4639 67.2503 11.9051 67.3936 12.29C67.545 12.6736 67.7664 12.974 68.0566 13.1914C68.3531 13.4087 68.7251 13.5175 69.1729 13.5176C69.583 13.5176 69.9275 13.4247 70.2051 13.2393C70.4888 13.0475 70.6719 12.7594 70.7539 12.376H72.8604C73.0014 12.3762 73.1093 12.5032 73.0771 12.6406C72.9629 13.1292 72.7527 13.5714 72.4473 13.9678C72.0939 14.4281 71.6367 14.7896 71.0752 15.0518C70.52 15.3139 69.8858 15.4453 69.1729 15.4453C68.3906 15.4453 67.6683 15.2402 67.0059 14.8311C66.3499 14.422 65.8232 13.8468 65.4258 13.1055C65.0346 12.3575 64.8389 11.4846 64.8389 10.4873C64.8389 9.46438 65.0346 8.58484 65.4258 7.84961C65.8169 7.11465 66.3402 6.55204 66.9961 6.16211C67.6585 5.76577 68.3843 5.56743 69.1729 5.56738ZM33.3613 5.56738C34.1246 5.56743 34.759 5.73977 35.2637 6.08496C35.7746 6.43018 36.1559 6.91651 36.4082 7.54297C36.6668 8.16303 36.7959 8.88537 36.7959 9.70996V14.9375C36.7958 15.0643 36.6932 15.167 36.5664 15.167H34.6416C34.5148 15.167 34.4112 15.0643 34.4111 14.9375V9.70996C34.4111 9.05162 34.2539 8.55603 33.9385 8.22363C33.6294 7.89127 33.2223 7.72566 32.7178 7.72559C32.0742 7.72559 31.5631 7.99084 31.1846 8.52148C30.8589 8.98576 30.6755 9.67246 30.6348 10.582L30.626 10.9854V14.9375C30.6259 15.0642 30.5232 15.1669 30.3965 15.167H28.4893C28.3627 15.1668 28.2599 15.0641 28.2598 14.9375V9.70996C28.2597 9.05165 28.1025 8.55603 27.7871 8.22363C27.478 7.89128 27.0709 7.72569 26.5664 7.72559C26.1374 7.72559 25.7518 7.8469 25.4111 8.08984C25.0769 8.32636 24.8152 8.69059 24.626 9.18262C24.4367 9.6749 24.3418 10.2926 24.3418 11.0342V14.9375C24.3417 15.0642 24.2391 15.167 24.1123 15.167H21.5791C21.4303 15.1668 21.3211 15.0274 21.3564 14.8828L22.3799 10.7021C22.406 10.5953 22.4054 10.4832 22.377 10.377L21.2393 6.125C21.2003 5.97925 21.3101 5.83611 21.4609 5.83594H23.7627L24.3037 7.38965C24.6065 6.78234 25.004 6.32783 25.4961 6.02734C25.9945 5.72047 26.563 5.56738 27.2002 5.56738C27.9635 5.56741 28.5978 5.73975 29.1025 6.08496C29.6135 6.43018 29.9947 6.91649 30.2471 7.54297L30.248 7.5459C30.3827 7.25198 30.537 6.99491 30.7109 6.77539C31.0453 6.35351 31.4369 6.04724 31.8848 5.85547C32.3327 5.66367 32.825 5.56738 33.3613 5.56738ZM60.0254 5.625C60.1522 5.62503 60.2549 5.72767 60.2549 5.85449V14.9375C60.2548 15.0642 60.1521 15.167 60.0254 15.167H58.1191C57.9924 15.167 57.8888 15.0643 57.8887 14.9375V5.85449C57.8887 5.72765 57.9923 5.625 58.1191 5.625H60.0254ZM63.6162 2C63.743 2 63.8466 2.10273 63.8467 2.22949V14.9375C63.8466 15.0643 63.743 15.167 63.6162 15.167H61.71C61.5832 15.1669 61.4806 15.0642 61.4805 14.9375V2.22949C61.4806 2.10277 61.5832 2.00006 61.71 2H63.6162ZM16.293 6.49023C14.925 6.49023 14.2403 7.79242 14.2402 10.3975C14.2402 11.7596 14.4052 12.7996 14.7354 13.5166C15.0774 14.2217 15.6087 14.5742 16.3281 14.5742C17.6606 14.5741 18.3271 13.2718 18.3271 10.667C18.3271 9.3047 18.168 8.27051 17.8496 7.56543C17.5312 6.84854 17.0121 6.49038 16.293 6.49023ZM42.3213 7.63867C41.8986 7.63867 41.5165 7.74412 41.1758 7.95508C40.8414 8.16604 40.573 8.48575 40.3711 8.91406C40.1755 9.33597 40.0781 9.87001 40.0781 10.5156C40.0781 11.468 40.2671 12.1812 40.6455 12.6543C41.0304 13.121 41.5355 13.3545 42.1602 13.3545C42.5765 13.3545 42.9518 13.249 43.2861 13.0381C43.6205 12.8271 43.883 12.5141 44.0723 12.0986C44.2679 11.6767 44.3652 11.1486 44.3652 10.5156C44.3652 9.55041 44.1788 8.83146 43.8066 8.3584C43.4408 7.87897 42.9458 7.63874 42.3213 7.63867ZM52.2539 7.72559C51.8943 7.72559 51.5566 7.81517 51.2412 7.99414C50.9258 8.16674 50.6727 8.41859 50.4834 8.75098C50.3178 9.03623 50.2248 9.37564 50.2041 9.76855L50.2002 9.94043V11.0049L50.2041 11.1699C50.2261 11.5505 50.3262 11.8921 50.5029 12.1943C50.7048 12.533 50.963 12.7985 51.2783 12.9902C51.6001 13.1756 51.9318 13.2686 52.2725 13.2686C52.7014 13.2685 53.0801 13.153 53.4082 12.9229C53.7361 12.6864 53.9944 12.3572 54.1836 11.9355C54.3792 11.5136 54.4775 11.0206 54.4775 10.458C54.4775 9.91471 54.3826 9.43839 54.1934 9.0293C54.0041 8.61384 53.7425 8.29405 53.4082 8.07031C53.0802 7.84024 52.6954 7.72567 52.2539 7.72559ZM6.58203 6.42773C6.02774 6.42773 5.59667 6.61293 5.29004 6.9834C4.99541 7.3419 4.84767 7.88555 4.84766 8.61426C4.84766 10.1798 5.43784 10.9629 6.61719 10.9629C7.71384 10.9629 8.26258 10.2039 8.2627 8.68652C8.2627 7.90991 8.12081 7.34193 7.83789 6.9834C7.56668 6.61299 7.14798 6.42779 6.58203 6.42773ZM69.2109 7.46582C68.7756 7.46583 68.4063 7.578 68.1035 7.80176C67.8008 8.01904 67.5708 8.31639 67.4131 8.69336C67.2889 8.99025 67.2139 9.32323 67.1875 9.69141H70.958C70.9555 9.49499 70.9392 9.29997 70.9053 9.10645C70.8611 8.81235 70.7721 8.54035 70.6396 8.29102C70.5135 8.04174 70.334 7.84331 70.1006 7.69629C69.8672 7.54288 69.5705 7.46582 69.2109 7.46582ZM75.4141 2.09375C76.3049 2.18541 76.9999 2.94816 77 3.875L76.9912 4.05859C76.9006 4.96109 76.1479 5.66504 75.2334 5.66504L75.0527 5.65625C74.2215 5.57066 73.5602 4.90088 73.4756 4.05859L73.4668 3.875C73.4669 2.88641 74.2578 2.085 75.2334 2.08496L75.4141 2.09375ZM75.2334 2.28516C74.371 2.2852 73.6671 2.99461 73.667 3.875C73.667 4.75544 74.371 5.4648 75.2334 5.46484C76.0959 5.46484 76.7998 4.75547 76.7998 3.875C76.7997 2.99458 76.0958 2.28516 75.2334 2.28516ZM59.0957 2.08496C59.5371 2.08503 59.8869 2.2132 60.1455 2.46875C60.4105 2.71807 60.5888 3.05368 60.5889 3.47559C60.5889 3.91033 60.4105 4.25261 60.1455 4.50195C59.8869 4.74468 59.537 4.86615 59.0957 4.86621C58.6353 4.86621 58.2787 4.74471 58.0264 4.50195C57.774 4.25261 57.6475 3.91033 57.6475 3.47559C57.6475 3.05368 57.774 2.71807 58.0264 2.46875C58.2787 2.21316 58.6353 2.08496 59.0957 2.08496ZM75.2578 3.12891C75.4052 3.12891 75.5126 3.14156 75.5791 3.16699C75.6461 3.19178 75.7001 3.23569 75.7402 3.2998C75.7804 3.36401 75.7998 3.43787 75.7998 3.52051C75.7998 3.62521 75.7697 3.71169 75.709 3.78027C75.6482 3.84821 75.5574 3.89134 75.4365 3.90918C75.4966 3.94472 75.5461 3.98386 75.585 4.02637C75.6245 4.06896 75.6776 4.1452 75.7441 4.25391L75.9121 4.52637H75.5791L75.3779 4.22168C75.3065 4.11312 75.2568 4.04553 75.2305 4.01758C75.2042 3.98906 75.1768 3.96918 75.1475 3.95898C75.118 3.94818 75.0708 3.94238 75.0068 3.94238H74.9502V4.52637H74.6719V3.12891H75.2578ZM74.9502 3.71973H75.1562C75.2899 3.71973 75.374 3.71359 75.4072 3.70215C75.4403 3.69069 75.4666 3.67142 75.4854 3.64355C75.5042 3.61559 75.5137 3.58004 75.5137 3.53809C75.5136 3.49121 75.5006 3.45334 75.4756 3.4248C75.4511 3.39563 75.4162 3.37774 75.3711 3.37012C75.3485 3.36694 75.2808 3.36524 75.168 3.36523H74.9502V3.71973Z" fill="#F4C16C"/>
</svg>
