<svg width="21" height="22" viewBox="0 0 21 22" fill="none" xmlns="http://www.w3.org/2000/svg">
<path fill-rule="evenodd" clip-rule="evenodd" d="M8.49878 3.2067C8.16501 2.9685 8.33353 2.44228 8.74359 2.44228L16.704 2.44228C17.635 2.44228 18.3896 3.19697 18.3896 4.12792V9.44711C18.3896 9.7898 18.0024 9.9892 17.7234 9.79013L8.49878 3.2067ZM8.16778 11.1673L5.67561 19.2543C5.62115 19.431 5.45782 19.5516 5.27289 19.5516H2.50324C2.19033 19.5516 1.98656 19.2226 2.12594 18.9425L5.79998 11.5579C5.96246 11.2313 5.9617 10.8473 5.79794 10.5213L2.04541 3.05289C1.9046 2.77265 2.10833 2.44228 2.42196 2.44228H5.07867C5.26074 2.44228 5.42223 2.55922 5.47904 2.7322L8.16543 10.9117C8.19266 10.9946 8.19348 11.0839 8.16778 11.1673ZM8.74359 19.5577C8.33353 19.5577 8.16501 19.0315 8.49878 18.7933L17.7234 12.2099C18.0024 12.0108 18.3896 12.2102 18.3896 12.5529V17.8721C18.3896 18.8031 17.635 19.5577 16.704 19.5577H8.74359Z" fill="#F4C16C"/>
</svg>
